<svg width="100" height="100" viewBox="0 0 100 100" fill="none" xmlns="http://www.w3.org/2000/svg">

<path d="M78.5252 34.6409C77.6096 34.2901 76.6608 33.9582 75.6839 33.6443C75.8445 32.915 75.9918 32.195 76.1229 31.4873C78.2737 19.8667 76.8674 10.5051 72.0654 7.42285C67.4608 4.46739 59.9304 7.54893 52.3251 14.9158C51.5937 15.6242 50.8603 16.3742 50.1273 17.1603C49.6388 16.6402 49.1511 16.1376 48.6647 15.6569C40.6941 7.77976 32.7048 4.46022 27.9075 7.55138C23.3073 10.5154 21.945 19.3162 23.8811 30.3292C24.068 31.3929 24.2866 32.4792 24.5337 33.5837C23.403 33.9409 22.3114 34.3218 21.2669 34.727C11.9222 38.3532 5.95428 44.0365 5.95428 49.9315C5.95428 56.0199 12.3609 62.1267 22.0941 65.8296C22.8622 66.1218 23.6592 66.3981 24.4806 66.6604C24.214 67.8549 23.9821 69.0255 23.7874 70.1672C21.9414 80.989 23.383 89.5819 27.9709 92.5272C32.7098 95.5689 40.663 92.4424 48.4074 84.9076C49.0195 84.312 49.6338 83.6804 50.2492 83.0183C51.0468 83.8733 51.8432 84.6824 52.6353 85.4413C60.1367 92.6262 67.5455 95.5275 72.1291 92.5739C76.8633 89.5235 78.4019 80.2927 76.4044 69.0618C76.2518 68.2041 76.0743 67.3278 75.8749 66.436C76.4335 66.2522 76.9818 66.0625 77.5164 65.8652C87.635 62.1337 94.2185 56.1012 94.2185 49.9315C94.2185 44.0151 88.0581 38.2936 78.5252 34.6409Z" fill="#53C1DE"/>
<path d="M76.3305 61.8815C75.8479 62.0594 75.3527 62.2313 74.8481 62.3979C73.731 58.4618 72.2234 54.2763 70.3785 49.952C72.139 45.7306 73.5884 41.5986 74.6741 37.688C75.577 37.9788 76.4534 38.2855 77.2979 38.6092C85.4657 41.7389 90.4479 46.3661 90.4479 49.9315C90.4479 53.7293 85.0672 58.6594 76.3305 61.8815ZM72.7054 69.8769C73.5887 74.843 73.7148 79.333 73.1298 82.843C72.6041 85.9969 71.5469 88.0997 70.2397 88.9419C67.4581 90.7339 61.5096 88.4045 55.0944 82.2599C54.359 81.5556 53.6182 80.8035 52.8751 80.0075C55.3621 76.9799 57.8477 73.4603 60.2737 69.5515C64.5406 69.1301 68.5719 68.4411 72.2276 67.5004C72.4077 68.3089 72.5676 69.1017 72.7054 69.8769ZM36.0455 88.6322C33.3279 89.7005 31.1634 89.7311 29.855 88.8913C27.0708 87.104 25.9134 80.2047 27.4922 70.9499C27.673 69.89 27.8883 68.8013 28.1364 67.6884C31.7521 68.5783 35.7538 69.2187 40.0309 69.6047C42.4732 73.4296 45.0306 76.9453 47.6078 80.0237C47.0448 80.6288 46.4839 81.2048 45.9261 81.7476C42.5016 85.0794 39.0699 87.4433 36.0455 88.6322ZM23.3136 61.8583C19.0097 60.221 15.4554 58.093 13.0192 55.7709C10.83 53.6842 9.72473 51.6125 9.72473 49.9315C9.72473 46.3542 14.5164 41.7913 22.5081 38.69C23.4778 38.3137 24.4928 37.9591 25.5463 37.6259C26.6507 41.6249 28.0996 45.8058 29.8481 50.0336C28.077 54.3242 26.6075 58.5718 25.4922 62.6176C24.7412 62.3773 24.0137 62.1244 23.3136 61.8583ZM27.5814 29.5232C25.9227 20.0876 27.0243 12.9697 29.7965 11.1836C32.7494 9.28084 39.279 11.9938 46.161 18.7953C46.6009 19.23 47.0426 19.685 47.4855 20.1558C44.921 23.2207 42.3869 26.7101 39.9664 30.5124C35.8152 30.9407 31.8416 31.6286 28.1882 32.5498C27.9585 31.5214 27.7551 30.511 27.5814 29.5232ZM65.6547 39.9872C64.7813 38.3081 63.8847 36.6687 62.9706 35.0741C65.7868 35.4703 68.485 35.9963 71.0188 36.64C70.2581 39.3536 69.31 42.1909 68.1939 45.0995C67.3932 43.4076 66.5464 41.7018 65.6547 39.9872ZM50.1285 23.1552C51.8677 25.2524 53.6094 27.5939 55.3225 30.1344C53.5962 30.0436 51.8485 29.9964 50.0864 29.9964C48.3409 29.9964 46.6061 30.0426 44.8905 30.1317C46.6053 27.6148 48.3621 25.2765 50.1285 23.1552ZM34.5029 40.0162C33.6305 41.7 32.7994 43.3966 32.0113 45.0964C30.9133 42.1979 29.9739 39.3477 29.2066 36.5956C31.7249 35.9684 34.4104 35.4555 37.2086 35.0667C36.2817 36.6761 35.3777 38.3275 34.5029 40.0159V40.0162ZM37.2892 65.0956C34.3981 64.7366 31.6723 64.2501 29.1546 63.6402C29.9342 60.839 30.8942 57.9279 32.0155 54.967C32.8056 56.6655 33.64 58.3628 34.5178 60.0503H34.518C35.4121 61.7695 36.3384 63.4534 37.2892 65.0956ZM50.2328 77.0037C48.4457 74.8576 46.6631 72.4835 44.9222 69.9299C46.6122 70.0037 48.3353 70.0415 50.0864 70.0415C51.8854 70.0415 53.6639 69.9964 55.4144 69.9096C53.6957 72.5092 51.9602 74.8869 50.2328 77.0037ZM68.2298 54.8161C69.4096 57.809 70.4041 60.7049 71.1937 63.4583C68.6345 64.1082 65.8715 64.6315 62.9602 65.0205C63.8765 63.4043 64.781 61.7368 65.6697 60.0215C66.5689 58.2861 67.4226 56.548 68.2298 54.8161ZM62.4036 57.9248C61.0239 60.5875 59.6074 63.1294 58.1693 65.5288C55.5502 65.7372 52.8443 65.8446 50.0864 65.8446C47.3397 65.8446 44.6679 65.7497 42.095 65.5638C40.599 63.1329 39.1518 60.5835 37.7808 57.9477H37.7811C36.4138 55.319 35.1554 52.6682 34.0151 50.0322C35.1551 47.3901 36.4102 44.7363 37.7697 42.1124L37.7693 42.1129C39.1324 39.482 40.567 36.945 42.0492 34.5294C44.6741 34.3085 47.3659 34.1933 50.0862 34.1933H50.0864C52.819 34.1933 55.5142 34.3094 58.1384 34.5322C59.5979 36.9301 61.0228 39.4589 62.3912 42.0902C63.7752 44.751 65.0465 47.3871 66.1962 49.9726C65.0499 52.6025 63.7814 55.2652 62.4036 57.9248ZM70.1819 11.0587C73.1376 12.9559 74.287 20.6071 72.43 30.6403C72.3115 31.2805 72.1782 31.9325 72.0333 32.5934C68.3714 31.6529 64.395 30.9531 60.2317 30.5184C57.8064 26.6742 55.2932 23.1795 52.7704 20.1539C53.4487 19.4276 54.126 18.7352 54.8005 18.0817C61.3167 11.7698 67.4071 9.27769 70.1819 11.0587Z" fill="rgba(36, 101, 136, 0.911)"/>
<path d="M50.0864 41.1588C54.4393 41.1588 57.9681 45.0864 57.9681 49.9315C57.9681 54.7764 54.4393 58.7042 50.0864 58.7042C45.7335 58.7042 42.2047 54.7764 42.2047 49.9315C42.2047 45.0864 45.7335 41.1588 50.0864 41.1588Z" fill="#53C1DE"/>
</svg>
